# xmcd CD database file
#
# Track frame offsets:
#	150
#	23332
#	41935
#	62293
#	84043
#	106705
#	130294
#	153474
#	170004
#	191928
#	215837
#	233986
#	256223
#	276697
#	299187
#
# Disc length: 4285 seconds
#
# Revision: 0
# Processed by: cddbd v1.5.1PL0 Copyright (c) Steve Scherf et al.
# Submitted via: CDex 1.51
#
DISCID=e010bb0f
DTITLE=12 Girls Band - Shining Energy 
DYEAR=2004
DGENRE=New Age
TTITLE0=Great Canyon
TTITLE1=Kiko
TTITLE2=Lihi Tabi Dachi
TTITLE3=Shining Energy
TTITLE4=Asu-E No Tobira
TTITLE5=Loulan Girl
TTITLE6=Reel Around The Sun (From Riverdance)
TTITLE7=Only Time
TTITLE8=Tokirward
TTITLE9=Red Hoi Mi O Makase
TTITLE10=Fantasy
TTITLE11=Swan Lake
TTITLE12=Flame
TTITLE13=Prayer
TTITLE14=12 Girls Band - Shining Energy - 15 - Butterfly
EXTD=YEAR: 2004
EXTT0=
EXTT1=
EXTT2=
EXTT3=
EXTT4=
EXTT5=
EXTT6=
EXTT7=
EXTT8=
EXTT9=
EXTT10=
EXTT11=
EXTT12=
EXTT13=
EXTT14=
PLAYORDER=
